<?xml version="1.0" standalone="no"?>
<!DOCTYPE svg PUBLIC "-//W3C//DTD SVG 20010904//EN"
 "http://www.w3.org/TR/2001/REC-SVG-20010904/DTD/svg10.dtd">
<svg version="1.0" xmlns="http://www.w3.org/2000/svg"
 width="500.000000pt" height="500.000000pt" viewBox="0 0 500.000000 500.000000"
 preserveAspectRatio="xMidYMid meet">

<g transform="translate(0.000000,500.000000) scale(0.100000,-0.100000)"
fill="#000000" stroke="none">
<path d="M1385 2998 c-2 -7 -13 -58 -24 -113 l-21 -100 122 -119 c66 -65 116
-121 111 -125 -5 -3 -79 -55 -164 -115 -85 -60 -155 -110 -157 -111 -2 -2 -52
-245 -52 -258 0 -4 66 -6 147 -5 l148 3 32 160 c50 250 153 780 153 788 0 4
-65 7 -145 7 -108 0 -147 -3 -150 -12z"/>
<path d="M1765 2988 c-18 -77 -175 -900 -175 -917 0 -21 4 -21 248 -21 276 0
438 16 508 50 157 76 231 289 139 398 -14 17 -44 37 -67 47 l-42 16 51 29 c28
16 64 45 81 65 32 39 62 120 62 166 0 40 -25 98 -58 132 -49 51 -95 57 -434
57 l-308 0 -5 -22z m465 -181 c39 -19 48 -61 25 -105 -28 -51 -55 -62 -164
-62 l-94 0 7 40 c3 22 11 63 17 90 l11 50 86 0 c50 0 98 -6 112 -13z m-20
-377 c24 -24 26 -70 5 -109 -22 -44 -78 -61 -196 -61 -91 0 -100 2 -95 18 3 9
8 35 11 57 4 22 11 57 16 78 l10 37 114 0 c102 0 117 -2 135 -20z"/>
<path d="M3130 2851 c-69 -88 -128 -156 -131 -152 -4 3 -33 72 -65 154 -32 81
-62 147 -67 147 -7 0 -147 -96 -221 -153 -18 -13 -15 -22 71 -203 l90 -190
-38 -190 c-21 -104 -38 -195 -39 -202 0 -10 33 -12 147 -10 l148 3 40 202 40
201 225 260 c124 143 227 259 228 257 3 -3 -44 -255 -114 -609 l-16 -79 118
-118 c65 -66 122 -119 125 -119 4 0 24 88 45 195 l38 195 36 0 c63 -1 74 -17
145 -225 27 -77 52 -146 58 -152 11 -16 327 -19 327 -4 0 5 -22 79 -50 163
-51 157 -78 205 -132 238 l-29 17 59 21 c104 38 175 117 208 227 27 96 3 193
-59 237 -61 44 -113 48 -602 47 l-460 0 -125 -158z m930 -56 c18 -17 21 -27
17 -65 -6 -56 -37 -84 -107 -99 -49 -11 -180 -15 -180 -7 0 5 27 140 35 174 6
23 8 24 109 20 87 -2 108 -6 126 -23z"/>
</g>
</svg>
